#N canvas 37 482 819 482 12;
#N canvas 114 135 1234 659 control-panel 1;
#X obj 256 74 tgl 15 0 empty empty abl 0 -8 0 10 -262144 -1 -1 1 1
;
#X obj 882 252 t b f;
#X msg 882 275 60000;
#X obj 882 298 /;
#X obj 256 114 bng 15 250 50 0 empty empty empty 17 7 0 10 -262144
-1 -1;
#X obj 514 301 select 0;
#X obj 46 233 tgl 15 0 empty player-1-gate-set 1 4 7 0 10 -262144 -1
-1 0 1;
#X obj 76 233 tgl 15 0 empty player-2-gate-set 2 4 7 0 10 -262144 -1
-1 0 1;
#X obj 514 348 f;
#X obj 557 340 + 1;
#X obj 514 391 select 0;
#X obj 256 94 bng 15 250 50 0 empty empty empty 17 7 0 10 -262144 -1
-1;
#X obj 635 343 + 1;
#N canvas 1128 570 500 369 metronome 0;
#X obj 61 59 select 0;
#X msg 61 132 1 5 \, 0 5 50;
#X obj 61 155 vline~;
#X obj 61 178 *~;
#X obj 100 177 osc~ 1000;
#X obj 61 264 *~;
#X obj 61 314 dac~;
#X obj 334 168 dbtorms;
#X obj 334 191 pack f 40;
#X obj 334 214 line~;
#X msg 201 142 1 5 \, 0 5 50;
#X obj 201 165 vline~;
#X obj 201 188 *~;
#X obj 240 187 osc~ 500;
#X obj 201 114 t b;
#X obj 334 62 r metronome-volume;
#X obj 334 95 moses 41;
#X obj 334 118 t b;
#X msg 334 141 0;
#X obj 61 36 r step;
#X connect 0 0 1 0;
#X connect 0 1 14 0;
#X connect 1 0 2 0;
#X connect 2 0 3 0;
#X connect 3 0 5 0;
#X connect 4 0 3 1;
#X connect 5 0 6 1;
#X connect 5 0 6 0;
#X connect 7 0 8 0;
#X connect 8 0 9 0;
#X connect 9 0 5 1;
#X connect 10 0 11 0;
#X connect 11 0 12 0;
#X connect 12 0 5 0;
#X connect 13 0 12 1;
#X connect 14 0 10 0;
#X connect 15 0 16 0;
#X connect 16 0 17 0;
#X connect 16 1 7 0;
#X connect 17 0 18 0;
#X connect 18 0 7 0;
#X connect 19 0 0 0;
#X restore 990 262 pd metronome;
#X msg 297 410 clear;
#X obj 208 391 +~;
#X obj 550 456 r loop-dur;
#X obj 514 537 delread~ main-out-del 10000;
#X obj 514 590 *~ 0.8;
#X obj 294 476 env~;
#X obj 772 425 t b f;
#X msg 772 448 100;
#X obj 772 471 -;
#X obj 772 494 / 100;
#X obj 772 517 pow 1;
#X obj 514 461 f;
#X obj 514 484 change;
#X text 532 431 only update on loop reset;
#X obj 166 106 vsl 15 128 40 100 0 0 metronome-volume metronome-volume-set
empty 0 -9 0 10 -262144 -1 -1 3267 1;
#X obj 947 38 loadbang;
#X text 168 108 metronome, f 1;
#X obj 136 106 vsl 15 128 40 100 0 0 looper-volume looper-volume-set
empty 0 -9 0 10 -262144 -1 -1 10583 1;
#X text 138 108 looper, f 1;
#X obj 106 106 vsl 15 128 40 100 0 0 master-volume master-volume-set
empty 0 -9 0 10 -262144 -1 -1 10583 1;
#X text 108 108 MASTER, f 1;
#X obj 196 104 vradio 15 1 0 8 loop-measures loop-measures-set empty
0 -8 0 10 -262144 -1 -1 1;
#X obj 635 320 r loop-measures;
#X obj 882 227 r tempo;
#X obj 77 106 vu 15 120 player-2-vu empty -1 -8 0 10 -66577 -1 0 0
;
#X obj 47 106 vu 15 120 player-1-vu empty -1 -8 0 10 -66577 -1 0 0
;
#X obj 294 499 - 100;
#X obj 294 522 s looper-vu;
#N canvas 1350 84 258 362 compute-loop-dur 0;
#X obj 39 24 inlet;
#X obj 105 218 t b f;
#X obj 39 253 * 1;
#X obj 39 292 s loop-dur;
#X obj 105 193 + 1;
#X obj 105 170 r loop-measures;
#X obj 105 78 t b f;
#X obj 39 113 * 1;
#X obj 105 53 r time-sig;
#X connect 0 0 7 0;
#X connect 1 0 2 0;
#X connect 1 1 2 1;
#X connect 2 0 3 0;
#X connect 4 0 1 0;
#X connect 5 0 4 0;
#X connect 6 0 7 0;
#X connect 6 1 7 1;
#X connect 7 0 2 0;
#X connect 8 0 6 0;
#X restore 882 330 pd compute-loop-dur;
#X obj 208 571 delwrite~ main-out-del 60000;
#X obj 226 233 bng 15 250 50 0 clear-buffer empty empty 17 7 0 10 -261234
-1 -1;
#X obj 297 385 r clear-buffer;
#X obj 772 395 r decay-rate;
#X floatatom 166 74 5 0 100 2 decay decay-rate-set decay-rate;
#N canvas 1078 529 721 371 inputs 1;
#X obj 137 119 adc~ 1;
#X obj 137 172 *~;
#X obj 221 144 pack f 40;
#X obj 221 167 vline~;
#X obj 417 172 *~;
#X obj 501 144 pack f 40;
#X obj 501 167 vline~;
#X obj 417 119 adc~ 2;
#X obj 221 76 > 0;
#X obj 501 78 > 0;
#X obj 52 170 env~;
#X obj 52 193 - 100;
#X obj 52 216 s player-1-vu;
#X obj 340 179 env~;
#X obj 340 202 - 100;
#X obj 340 225 s player-2-vu;
#X obj 245 293 +~;
#X obj 245 316 outlet~;
#X obj 521 109 s player-2-gate-set;
#X obj 241 109 s player-1-gate-set;
#X obj 72 43 ctlin;
#X obj 72 66 pack f f f;
#X obj 72 89 print;
#X obj 241 23 ctlin 66 1;
#X obj 521 25 ctlin 124 17;
#X obj 501 55 ctlin 64 17;
#X obj 221 53 ctlin 64 1;
#X obj 181 61 tgl 15 0 empty empty empty 17 7 0 10 -262144 -1 -1 0
1;
#X connect 0 0 1 0;
#X connect 0 0 10 0;
#X connect 1 0 16 0;
#X connect 2 0 3 0;
#X connect 3 0 1 1;
#X connect 4 0 16 0;
#X connect 5 0 6 0;
#X connect 6 0 4 1;
#X connect 7 0 4 0;
#X connect 7 0 13 0;
#X connect 8 0 2 0;
#X connect 8 0 19 0;
#X connect 9 0 5 0;
#X connect 9 0 18 0;
#X connect 10 0 11 0;
#X connect 11 0 12 0;
#X connect 13 0 14 0;
#X connect 14 0 15 0;
#X connect 16 0 17 0;
#X connect 20 0 21 0;
#X connect 20 1 21 1;
#X connect 20 2 21 2;
#X connect 21 0 22 0;
#X connect 25 0 9 0;
#X connect 26 0 8 0;
#X connect 27 0 8 0;
#X restore 208 348 pd inputs;
#X obj 227 106 vu 15 120 looper-vu empty -1 -8 0 10 -66577 -1 0 0;
#N canvas 741 622 316 284 tap-main-out 0;
#X obj 40 117 inlet~;
#X obj 40 164 *~;
#X obj 40 197 dac~;
#X obj 136 131 dbtorms;
#X obj 136 154 pack f 40;
#X obj 136 177 line~;
#X obj 136 32 r master-volume;
#X obj 136 55 moses 41;
#X obj 136 78 t b;
#X msg 136 101 0;
#X connect 0 0 1 0;
#X connect 1 0 2 1;
#X connect 1 0 2 0;
#X connect 3 0 4 0;
#X connect 4 0 5 0;
#X connect 5 0 1 1;
#X connect 6 0 7 0;
#X connect 7 0 8 0;
#X connect 7 1 3 0;
#X connect 8 0 9 0;
#X connect 9 0 3 0;
#X restore 656 600 pd tap-main-out;
#X msg 487 85 connect \$1;
#X floatatom 581 215 5 0 0 1 beat_time - -;
#X floatatom 544 233 5 0 0 1 phase - -;
#X floatatom 458 226 5 0 0 1 step - -;
#X floatatom 618 194 5 0 0 1 tempo - -;
#X floatatom 539 41 5 0 0 0 - - -;
#X obj 539 19 r #abl_link_num_peers;
#X obj 643 156 s tempo;
#X floatatom 453 495 5 0 0 0 - - -;
#X obj 335 43 r step;
#X obj 335 66 t b;
#X obj 418 161 s step;
#X floatatom 920 300 5 0 0 0 - - -;
#X obj 514 133 abl_link~;
#X floatatom 46 74 5 2 6 2 time-sig time-sig-set time-sig;
#X msg 613 96 reset 0 \$1;
#X msg 947 71 \; metronome-volume-set 80 \; looper-volume-set 90 \;
master-volume-set 90 \; time-sig-set 4 \; loop-measures-set 1 \; decay-rate-set
10 \;;
#X obj 613 72 r time-sig;
#X floatatom 740 94 5 0 0 0 - - -;
#X obj 740 116 / 100;
#X msg 740 139 resolution \$1;
#X obj 617 369 f;
#X obj 514 509 t f b;
#X floatatom 617 392 5 0 0 0 - - -;
#X text 761 4 this is the resolution of the step. default of 1 gives
us every beat \, 0.5 would give half a beat., f 20;
#X obj 557 363 % 2;
#X connect 0 0 51 0;
#X connect 1 0 2 0;
#X connect 1 1 3 1;
#X connect 2 0 3 0;
#X connect 3 0 42 0;
#X connect 3 0 63 0;
#X connect 5 0 8 0;
#X connect 8 0 9 0;
#X connect 8 0 10 0;
#X connect 9 0 76 0;
#X connect 10 0 11 0;
#X connect 10 0 25 0;
#X connect 12 0 72 1;
#X connect 14 0 43 0;
#X connect 15 0 19 0;
#X connect 15 0 43 0;
#X connect 16 0 25 1;
#X connect 17 0 18 0;
#X connect 17 0 50 0;
#X connect 18 0 15 1;
#X connect 19 0 40 0;
#X connect 20 0 21 0;
#X connect 20 1 22 1;
#X connect 21 0 22 0;
#X connect 22 0 23 0;
#X connect 23 0 24 0;
#X connect 24 0 18 1;
#X connect 25 0 26 0;
#X connect 25 0 59 0;
#X connect 26 0 73 0;
#X connect 29 0 67 0;
#X connect 36 0 12 0;
#X connect 37 0 1 0;
#X connect 40 0 41 0;
#X connect 45 0 14 0;
#X connect 46 0 20 0;
#X connect 48 0 15 0;
#X connect 51 0 64 0;
#X connect 57 0 56 0;
#X connect 60 0 61 0;
#X connect 61 0 4 0;
#X connect 64 0 54 0;
#X connect 64 0 5 0;
#X connect 64 0 62 0;
#X connect 64 1 53 0;
#X connect 64 2 52 0;
#X connect 64 3 55 0;
#X connect 64 3 58 0;
#X connect 66 0 64 0;
#X connect 68 0 66 0;
#X connect 69 0 70 0;
#X connect 70 0 71 0;
#X connect 71 0 64 0;
#X connect 72 0 74 0;
#X connect 72 0 76 1;
#X connect 73 0 17 0;
#X connect 73 1 72 0;
#X connect 76 0 8 1;
#X coords 0 -1 1 1 250 210 2 40 50;
#X restore 23 24 pd control-panel;
#X obj 124 266 hradio 15 1 0 3 empty empty empty 0 -8 0 10 -262144
-1 -1 1;
#X obj 111 294 vsl 15 128 0 127 0 0 empty empty empty 0 -9 0 10 -262144
-1 -1 0 1;
#X obj 131 294 vsl 15 128 0 127 0 0 empty empty empty 0 -9 0 10 -262144
-1 -1 0 1;
#X floatatom 134 244 5 0 0 1 decay - -;
#X floatatom 68 264 5 0 0 0 decay - -;
#X obj 161 294 vsl 15 128 0 127 0 0 empty empty empty 0 -9 0 10 -262144
-1 -1 0 1;
#X text 183 264 << 3rd option is LIVE (no buffer);
#X text 215 324 Each performer sends ONE mix that contains \, loop
buf A \, loop buf B \, and live improv;
#X text 215 374 Danforth EQs \, compresses that single channel in Ableton
;
