#N canvas 644 257 512 358 12;
#X obj 196 90 bng 15 250 50 0 empty empty empty 17 7 0 10 #fcfcfc #000000
#000000;
#X obj 216 56 list;
#X obj 49 156 timer;
#X floatatom 79 185 10 0 0 0 - - - 0;
#N canvas 919 194 589 517 average-ping 0;
#X obj 177 224 f;
#X obj 237 208 + 1;
#X obj 59 61 inlet;
#X floatatom 109 443 10 0 0 0 - - - 0;
#X obj 59 111 t b f b b;
#X obj 59 409 /;
#X obj 237 232 %;
#X obj 59 473 outlet;
#X obj 227 60 bng 15 250 50 0 empty empty empty 17 7 0 10 #fcfcfc #000000
#000000;
#X msg 247 84 \; \$1-pings const 0 \;;
#X msg 202 186 0;
#X msg 331 315 1;
#X obj 59 334 spigot;
#X obj 370 203 - 1;
#X obj 331 291 select;
#X msg 291 315 0;
#X obj 227 30 loadbang;
#X text 126 339 need to suppress output of average ping time until
N values have come in, f 38;
#X obj 247 60 f \$1;
#X obj 59 385 array sum \$1-pings;
#X obj 370 179 array size \$1-pings;
#X obj 116 270 array set \$1-pings;
#X obj 282 417 array define \$1-pings \$2;
#X connect 0 0 1 0;
#X connect 0 0 14 0;
#X connect 0 0 21 1;
#X connect 1 0 6 0;
#X connect 2 0 4 0;
#X connect 4 0 12 0;
#X connect 4 1 21 0;
#X connect 4 2 0 0;
#X connect 4 3 20 0;
#X connect 5 0 3 0;
#X connect 5 0 7 0;
#X connect 6 0 0 1;
#X connect 8 0 10 0;
#X connect 8 0 15 0;
#X connect 8 0 18 0;
#X connect 10 0 0 1;
#X connect 11 0 12 1;
#X connect 12 0 19 0;
#X connect 13 0 14 1;
#X connect 14 0 11 0;
#X connect 15 0 12 1;
#X connect 16 0 8 0;
#X connect 18 0 9 0;
#X connect 19 0 5 0;
#X connect 20 0 5 1;
#X connect 20 0 6 1;
#X connect 20 0 13 0;
#X restore 49 216 pd average-ping;
#X obj 216 90 select downbeat beat;
#X floatatom 79 245 10 0 0 0 - - - 0;
#X obj 49 50 r ping-timer-reset;
#X obj 216 26 inlet;
#X obj 49 310 outlet;
#X obj 59 276 s perf-\$1-avg-ping;
#X text 223 185 \$1: performer ID \; \$2: number of values to average
\;;
#X connect 1 0 5 0;
#X connect 2 0 3 0;
#X connect 2 0 4 0;
#X connect 4 0 6 0;
#X connect 4 0 9 0;
#X connect 4 0 10 0;
#X connect 5 0 0 0;
#X connect 5 0 2 1;
#X connect 5 1 2 1;
#X connect 7 0 2 0;
#X connect 8 0 1 0;
