#N canvas 979 200 814 487 12;
#X obj 58 34 r server-connect;
#X obj 58 58 select 1 0;
#X msg 58 172 connect \$1 57120;
#X msg 108 202 disconnect;
#X obj 58 236 netsend;
#X obj 118 95 r server-ip-address;
#X obj 58 125 symbol;
#X obj 118 119 symbol;
#X obj 58 273 tgl 15 0 empty empty empty 17 7 0 10 #fcfcfc #000000
#000000 0 1;
#X obj 128 283 route server;
#X obj 128 307 list;
#X obj 128 331 select downbeat beat;
#X text 313 40 \$1: performer ID;
#X obj 128 385 f \$1;
#X obj 348 385 f \$1;
#X msg 128 426 list perf-\$1 downbeat;
#X msg 348 425 list perf-\$1 beat;
#X obj 429 186 r perf-\$1-quack-min-fill;
#X obj 390 211 pack \$1 f;
#X obj 590 211 pack \$1 f;
#X obj 629 186 r perf-\$1-quack-max-fill;
#X obj 390 131 t b b;
#X msg 390 235 list perf-\$1 min-fill \$2;
#X msg 590 235 list perf-\$1 max-fill \$2;
#X connect 0 0 1 0;
#X connect 1 0 6 0;
#X connect 1 1 3 0;
#X connect 2 0 4 0;
#X connect 3 0 4 0;
#X connect 4 0 8 0;
#X connect 4 1 9 0;
#X connect 5 0 7 0;
#X connect 6 0 2 0;
#X connect 7 0 6 1;
#X connect 9 0 10 0;
#X connect 10 0 11 0;
#X connect 11 0 13 0;
#X connect 11 0 21 0;
#X connect 11 1 14 0;
#X connect 11 1 21 0;
#X connect 13 0 15 0;
#X connect 14 0 16 0;
#X connect 15 0 4 0;
#X connect 16 0 4 0;
#X connect 17 0 18 1;
#X connect 18 0 22 0;
#X connect 19 0 23 0;
#X connect 20 0 19 1;
#X connect 21 0 18 0;
#X connect 21 1 19 0;
#X connect 22 0 4 0;
#X connect 23 0 4 0;
