#N canvas 947 82 402 502 10;
#X obj 28 126 / 127;
#X obj 218 249 * 127;
#X obj 28 86 t f b;
#X obj 28 372 t b f;
#X msg 278 258 0;
#X msg 310 259 1;
#X obj 218 187 r \$1;
#X obj 218 288 spigot 1;
#X obj 28 168 + \$4;
#X obj 28 147 * \$5;
#X obj 218 208 - \$4;
#X obj 218 229 / \$5;
#X obj 55 440 s \$6;
#X obj 108 223 f \$7;
#X obj 75 289 + 0.5;
#X obj 75 310 i;
#X obj 108 244 > 0;
#X obj 75 264 spigot;
#X obj 28 189 t b f f b;
#X obj 28 345 f;
#X text 211 371 \$1: send name \; \$2: CC num \; \$3: channel num \;
\$4: offset \; \$5: range \; \$6: receive name \; \$7: rounding flag
\;;
#X obj 28 30 ctlin \$2 \$3;
#X obj 218 312 ctlout \$2 \$3;
#X connect 0 0 9 0;
#X connect 1 0 7 0;
#X connect 2 0 0 0;
#X connect 2 1 4 0;
#X connect 3 0 5 0;
#X connect 3 1 12 0;
#X connect 4 0 7 1;
#X connect 5 0 7 1;
#X connect 6 0 10 0;
#X connect 7 0 22 0;
#X connect 8 0 18 0;
#X connect 9 0 8 0;
#X connect 10 0 11 0;
#X connect 11 0 1 0;
#X connect 13 0 16 0;
#X connect 14 0 15 0;
#X connect 15 0 19 1;
#X connect 16 0 17 1;
#X connect 17 0 14 0;
#X connect 18 0 19 0;
#X connect 18 1 17 0;
#X connect 18 2 19 1;
#X connect 18 3 13 0;
#X connect 19 0 3 0;
#X connect 21 0 2 0;
