#N canvas 250 304 597 304 12;
#X obj 76 44 inlet~;
#X obj 76 208 *~;
#X obj 76 232 outlet~;
#X obj 256 208 *~;
#X obj 256 232 outlet~;
#X obj 386 44 inlet;
#X obj 386 68 sig~;
#X obj 386 92 lop~ 1;
#X obj 286 178 sqrt~;
#X obj 106 178 sqrt~;
#X obj 106 108 sig~ 1;
#X obj 106 132 -~;
#X connect 0 0 1 0;
#X connect 0 0 3 0;
#X connect 1 0 2 0;
#X connect 3 0 4 0;
#X connect 5 0 6 0;
#X connect 6 0 7 0;
#X connect 7 0 8 0;
#X connect 7 0 11 1;
#X connect 8 0 3 1;
#X connect 9 0 1 1;
#X connect 10 0 11 0;
#X connect 11 0 9 0;
