#N canvas 719 359 661 486 12;
#X msg 107 348 clear;
#X obj 58 289 +~;
#X obj 134 238 *~ 0.8;
#X obj 392 73 t b f;
#X msg 392 96 100;
#X obj 392 119 -;
#X obj 392 142 / 100;
#X obj 392 165 pow 1;
#X obj 58 104 inlet~;
#X obj 392 43 r perf-\$1-buf-\$2-decay-rate;
#X text 436 300 \$1: performer ID \; \$2: buffer ID \;;
#X obj 58 419 delwrite~ perf-\$1-buf-\$2-del 60000;
#X obj 134 125 delread~ perf-\$1-buf-\$2-del 10000;
#X obj 276 248 outlet~;
#X obj 107 323 r perf-\$1-buf-\$2-clear-buffer;
#X obj 134 84 r loop-dur;
#X connect 0 0 11 0;
#X connect 1 0 11 0;
#X connect 2 0 1 1;
#X connect 3 0 4 0;
#X connect 3 1 5 1;
#X connect 4 0 5 0;
#X connect 5 0 6 0;
#X connect 6 0 7 0;
#X connect 7 0 2 1;
#X connect 8 0 1 0;
#X connect 9 0 3 0;
#X connect 12 0 2 0;
#X connect 12 0 13 0;
#X connect 14 0 0 0;
#X connect 15 0 12 0;
