#N canvas 158 139 782 600 12;
#X obj 36 311 r perf-\$1-buf-A-decay-rate;
#X obj 36 345 oscformat \$1 buf-A decay-rate;
#N canvas 291 465 674 431 OSC-transmission 0;
#X obj 116 316 netsend -u -b;
#X obj 341 182 list prepend connect;
#X obj 341 206 list trim;
#X obj 341 152 list;
#X obj 308 116 select 0 1;
#X msg 308 269 disconnect;
#X obj 116 239 list prepend send;
#X obj 116 263 list trim;
#X obj 116 139 r client-\$1-osc-out;
#X obj 411 68 r server-ip-address;
#X obj 411 152 pack s f;
#X obj 471 122 t b f;
#X obj 471 98 r server-port;
#X obj 116 340 s server-connection-status;
#X obj 308 32 r server-connect;
#X connect 0 0 13 0;
#X connect 1 0 2 0;
#X connect 2 0 0 0;
#X connect 3 0 1 0;
#X connect 4 0 5 0;
#X connect 4 1 3 0;
#X connect 5 0 0 0;
#X connect 6 0 7 0;
#X connect 7 0 0 0;
#X connect 8 0 6 0;
#X connect 9 0 10 0;
#X connect 10 0 3 1;
#X connect 11 0 10 0;
#X connect 11 1 10 1;
#X connect 12 0 11 0;
#X connect 14 0 4 0;
#X restore 582 402 pd OSC-transmission;
#X obj 36 379 s client-\$1-osc-out;
#X obj 296 379 s client-\$1-osc-out;
#X obj 296 345 oscformat \$1 buf-B decay-rate;
#X obj 296 311 r perf-\$1-buf-B-decay-rate;
#X obj 36 519 s client-\$1-osc-out;
#X obj 296 519 s client-\$1-osc-out;
#X obj 36 451 r perf-\$1-buf-A-clear-buffer;
#X obj 296 451 r perf-\$1-buf-B-clear-buffer;
#X obj 296 485 oscformat \$1 buf-B clear-buffer;
#X obj 36 485 oscformat \$1 buf-A clear-buffer;
#X obj 36 249 s client-\$1-osc-out;
#X obj 296 249 s client-\$1-osc-out;
#X obj 36 181 r perf-\$1-buf-A-gain;
#X obj 36 215 oscformat \$1 buf-A gain;
#X obj 296 215 oscformat \$1 buf-B gain;
#X obj 296 181 r perf-\$1-buf-B-gain;
#X obj 566 249 s client-\$1-osc-out;
#X obj 566 119 s client-\$1-osc-out;
#X obj 566 51 r perf-\$1-main-volume-gain;
#X obj 566 85 oscformat \$1 main-volume gain;
#X obj 566 181 r perf-\$1-live-gain;
#X obj 566 215 oscformat \$1 live gain;
#X obj 36 119 s client-\$1-osc-out;
#X obj 296 119 s client-\$1-osc-out;
#X obj 296 51 r perf-\$1-input;
#X obj 36 85 oscformat \$1 main-volume gate;
#X obj 296 85 oscformat \$1 main-volume input;
#X obj 36 51 r perf-\$1-gate;
#X connect 0 0 1 0;
#X connect 1 0 3 0;
#X connect 5 0 4 0;
#X connect 6 0 5 0;
#X connect 9 0 12 0;
#X connect 10 0 11 0;
#X connect 11 0 8 0;
#X connect 12 0 7 0;
#X connect 15 0 16 0;
#X connect 16 0 13 0;
#X connect 17 0 14 0;
#X connect 18 0 17 0;
#X connect 21 0 22 0;
#X connect 22 0 20 0;
#X connect 23 0 24 0;
#X connect 24 0 19 0;
#X connect 27 0 29 0;
#X connect 28 0 25 0;
#X connect 29 0 26 0;
#X connect 30 0 28 0;
