#N canvas 656 246 462 401 12;
#X text 237 31 \$1: performer ID;
#X obj 101 11 cnv 15 113 298 empty empty Perf:\$1 5 12 0 14 #fce0c4
#404040 0;
#X obj 132 242 hradio 15 1 0 3 perf-\$1-sig-target perf-\$1-sig-target-set
empty 0 -8 0 10 #fcfcfc #000000 #000000 0;
#X floatatom 105 59 5 0 100 2 decay perf-\$1-buf-A-decay-rate-set perf-\$1-buf-A-decay-rate
0;
#X floatatom 167 59 5 0 100 2 decay perf-\$1-buf-B-decay-rate-set perf-\$1-buf-B-decay-rate
0;
#X obj 127 103 vsl 15 128 40 100 0 0 perf-\$1-buf-A-gain perf-\$1-buf-A-gain-set
empty 0 -9 0 10 #fcfcfc #000000 #000000 0 1;
#X text 129 105 Buffer-A, f 1;
#X obj 167 103 vsl 15 128 40 100 0 0 perf-\$1-buf-B-gain perf-\$1-buf-B-gain-set
empty 0 -9 0 10 #fcfcfc #000000 #000000 0 1;
#X text 169 105 Buffer-B, f 1;
#X obj 127 81 bng 15 250 50 0 perf-\$1-buf-A-clear-buffer perf-\$1-buf-A-clear-buffer-set
empty 17 7 0 10 #fcc4c4 #000000 #000000;
#X obj 167 81 bng 15 250 50 0 perf-\$1-buf-B-clear-buffer perf-\$1-buf-B-clear-buffer-set
empty 17 7 0 10 #fcc4c4 #000000 #000000;
#X obj 107 282 hsl 101 15 40 100 0 0 perf-\$1-main-volume perf-\$1-main-volume-set
volume 8 8 0 10 #fcfcfc #000000 #000000 0 1;
#X obj 147 262 tgl 15 0 perf-\$1-gate perf-\$1-gate-set g 4 7 0 10
#c6ffc7 #000000 #000000 0 1;
#X obj 147 103 vsl 15 128 40 100 0 0 perf-\$1-live-gain perf-\$1-live-gain-set
empty 0 -9 0 10 #fcfcfc #000000 #000000 0 1;
#X text 149 105 LIVE, f 1;
#N canvas 979 404 417 300 muting-logic 0;
#X obj 221 132 r perf-\$1-main-volume;
#X obj 203 161 f;
#X obj 31 27 r perf-\$1-main-mute;
#X obj 31 51 select 0 1;
#X obj 31 201 f;
#X obj 75 99 t b b;
#X obj 75 243 s perf-\$1-main-volume-set;
#X msg 75 123 0;
#X connect 0 0 1 1;
#X connect 1 0 4 1;
#X connect 2 0 3 0;
#X connect 3 0 4 0;
#X connect 3 1 5 0;
#X connect 4 0 6 0;
#X connect 5 0 7 0;
#X connect 5 1 1 0;
#X connect 7 0 6 0;
#X restore 273 164 pd muting-logic;
#X obj 195 262 tgl 15 0 perf-\$1-main-mute perf-\$1-main-mute-set m
4 7 0 10 #ffc7c6 #000000 #000000 0 1;
#X coords 0 -1 1 1 115 300 2 100 10;
