#N canvas 404 427 878 549 12;
#X msg 87 428 clear;
#X obj 58 339 +~;
#X obj 642 123 t b f;
#X msg 642 146 100;
#X obj 642 169 -;
#X obj 642 192 / 100;
#X obj 58 34 inlet~;
#X obj 642 93 r perf-\$1-buf-\$2-decay-rate;
#X text 616 461 \$1: performer ID \; \$2: buffer ID \;;
#X obj 58 469 delwrite~ perf-\$1-buf-\$2-del 60000;
#X obj 274 235 delread~ perf-\$1-buf-\$2-del 10000;
#X obj 416 418 outlet~;
#X obj 87 403 r perf-\$1-buf-\$2-clear-buffer;
#X obj 274 210 r loop-dur;
#X obj 523 386 dbtorms;
#X obj 523 409 pack f 40;
#X obj 523 432 line~;
#X obj 523 313 moses 41;
#X obj 523 336 t b;
#X msg 523 359 0;
#X obj 416 348 *~;
#X obj 58 206 *~;
#X obj 523 283 r perf-\$1-buf-\$2-gain;
#X obj 274 288 *~;
#X obj 642 216 pack f 40;
#X obj 642 240 line~;
#X obj 128 210 pack f 40;
#X obj 128 233 line~;
#X obj 128 184 pipe;
#X obj 438 144 r perf-\$1-remote-delay;
#X obj 128 50 r perf-\$1-gate;
#X obj 408 144 f;
#X obj 408 104 select 1;
#X obj 218 134 r perf-\$1-remote-audio;
#X obj 188 134 f;
#X obj 188 158 *;
#X obj 128 74 t f b f;
#X floatatom 208 188 10 0 0 0 - - - 0;
#X connect 0 0 9 0;
#X connect 1 0 9 0;
#X connect 2 0 3 0;
#X connect 2 1 4 1;
#X connect 3 0 4 0;
#X connect 4 0 5 0;
#X connect 5 0 24 0;
#X connect 6 0 21 0;
#X connect 7 0 2 0;
#X connect 10 0 20 0;
#X connect 10 0 23 0;
#X connect 12 0 0 0;
#X connect 13 0 10 0;
#X connect 14 0 15 0;
#X connect 15 0 16 0;
#X connect 16 0 20 1;
#X connect 17 0 18 0;
#X connect 17 1 14 0;
#X connect 18 0 19 0;
#X connect 19 0 14 0;
#X connect 20 0 11 0;
#X connect 21 0 1 0;
#X connect 22 0 17 0;
#X connect 23 0 1 1;
#X connect 24 0 25 0;
#X connect 25 0 23 1;
#X connect 26 0 27 0;
#X connect 27 0 21 1;
#X connect 28 0 26 0;
#X connect 29 0 31 1;
#X connect 30 0 36 0;
#X connect 31 0 35 1;
#X connect 32 0 31 0;
#X connect 33 0 34 1;
#X connect 34 0 35 0;
#X connect 35 0 28 1;
#X connect 35 0 37 0;
#X connect 36 0 28 0;
#X connect 36 1 34 0;
#X connect 36 2 32 0;
