#N canvas 525 62 799 300 12;
#X obj 192 87 hradio 15 1 0 3 empty empty empty 0 -8 0 10 -262144 -1
-1 1;
#X obj 179 115 vsl 15 128 0 127 0 0 empty empty empty 0 -9 0 10 -262144
-1 -1 0 1;
#X obj 199 115 vsl 15 128 0 127 0 0 empty empty empty 0 -9 0 10 -262144
-1 -1 0 1;
#X floatatom 202 65 5 0 0 1 decay - -;
#X floatatom 136 85 5 0 0 0 decay - -;
#X obj 229 115 vsl 15 128 0 127 0 0 empty empty empty 0 -9 0 10 -262144
-1 -1 0 1;
#X text 251 85 << 3rd option is LIVE (no buffer);
#X text 283 145 Each performer sends ONE mix that contains \, loop
buf A \, loop buf B \, and live improv;
#X text 283 195 Danforth EQs \, compresses that single channel in Ableton
;
#X text 582 34 \$1: performer ID;
