#N canvas 495 277 989 477 12;
#X obj 447 197 r perf-\$1-remote-delay;
#X text 308 406 \$1: performer ID \;;
#X obj 407 197 f;
#X obj 77 47 inlet~;
#X obj 125 191 r perf-\$1-remote-audio;
#X obj 77 367 outlet~;
#X obj 77 297 *~;
#X obj 407 297 *~;
#X obj 125 215 t b f;
#X msg 125 239 1;
#X obj 125 263 -;
#X obj 407 247 delread~ perf-\$1-remote-delay-buf;
#X obj 136 114 delwrite~ perf-\$1-remote-delay-buf 30000;
#X text 188 53 Is 30sec long enough for the slowest tempo combined
with largest bars/loop value?;
#X obj 407 147 r bar;
#X obj 407 171 select 0;
#X text 491 138 Only update this on the first downbeat of the loop?
Or is it better to have a very slowly moving variable delay based on
the live average ping time?;
#X obj 447 297 r perf-\$1-remote-audio;
#X floatatom 423 223 10 0 0 0 - - - 0;
#X connect 0 0 2 1;
#X connect 2 0 18 0;
#X connect 2 0 11 0;
#X connect 3 0 6 0;
#X connect 3 0 12 0;
#X connect 4 0 8 0;
#X connect 6 0 5 0;
#X connect 7 0 5 0;
#X connect 8 0 9 0;
#X connect 8 1 10 1;
#X connect 9 0 10 0;
#X connect 10 0 6 1;
#X connect 11 0 7 0;
#X connect 14 0 15 0;
#X connect 15 0 2 0;
#X connect 17 0 7 1;
