#N canvas 657 56 457 281 12;
#X obj 43 218 outlet~;
#X text 241 223 \$1: performer ID \;;
#X obj 42 33 adc~ \$1;
#X obj 43 92 *~;
#X obj 123 92 *~;
#X obj 206 120 select 0 1;
#X msg 206 144 1 0;
#X msg 246 144 0 1;
#X obj 206 168 unpack f f;
#X obj 206 96 r perf-\$1-remote-audio;
#X obj 122 33 r~ perf-\$1-remote-signal;
#X connect 2 0 3 0;
#X connect 3 0 0 0;
#X connect 4 0 0 0;
#X connect 5 0 6 0;
#X connect 5 1 7 0;
#X connect 6 0 8 0;
#X connect 7 0 8 0;
#X connect 8 0 3 1;
#X connect 8 1 4 1;
#X connect 9 0 5 0;
#X connect 10 0 4 0;
