#N canvas 945 163 543 536 12;
#X obj 36 224 +~;
#X obj 36 151 perf-dsp \$1 A;
#X obj 176 151 perf-dsp \$1 B;
#X obj 36 28 inlet~;
#X obj 36 427 outlet~;
#X obj 217 412 dbtorms;
#X obj 217 435 pack f 40;
#X obj 217 458 line~;
#X obj 217 339 moses 41;
#X obj 217 362 t b;
#X msg 217 385 0;
#X obj 36 384 *~;
#X obj 217 306 r perf-\$1-master-gain;
#X obj 349 185 dbtorms;
#X obj 349 208 pack f 40;
#X obj 349 231 line~;
#X obj 349 112 moses 41;
#X obj 349 135 t b;
#X msg 349 158 0;
#X obj 349 79 r perf-\$1-live-gain;
#X obj 146 224 *~;
#N canvas 255 318 678 366 multiplex 0;
#X obj 37 37 inlet~;
#X obj 37 260 *~;
#X obj 37 283 outlet~;
#X obj 137 260 *~;
#X obj 137 283 outlet~;
#X obj 237 260 *~;
#X obj 237 283 outlet~;
#X obj 317 37 r perf-\$1-input;
#X obj 317 60 select 0 1 2;
#X msg 317 103 1 0 0;
#X msg 377 103 0 1 0;
#X msg 437 103 0 0 1;
#X obj 317 146 unpack f f f;
#X obj 317 196 pack f 40;
#X obj 317 219 line~;
#X obj 417 196 pack f 40;
#X obj 417 219 line~;
#X obj 517 196 pack f 40;
#X obj 517 219 line~;
#X connect 0 0 1 0;
#X connect 0 0 3 0;
#X connect 0 0 5 0;
#X connect 1 0 2 0;
#X connect 3 0 4 0;
#X connect 5 0 6 0;
#X connect 7 0 8 0;
#X connect 8 0 9 0;
#X connect 8 1 10 0;
#X connect 8 2 11 0;
#X connect 9 0 12 0;
#X connect 10 0 12 0;
#X connect 11 0 12 0;
#X connect 12 0 13 0;
#X connect 12 1 15 0;
#X connect 12 2 17 0;
#X connect 13 0 14 0;
#X connect 14 0 1 1;
#X connect 15 0 16 0;
#X connect 16 0 3 1;
#X connect 17 0 18 0;
#X connect 18 0 5 1;
#X restore 36 71 pd multiplex;
#X obj 36 337 +~;
#X connect 0 0 22 0;
#X connect 1 0 0 0;
#X connect 2 0 0 1;
#X connect 3 0 21 0;
#X connect 5 0 6 0;
#X connect 6 0 7 0;
#X connect 7 0 11 1;
#X connect 8 0 9 0;
#X connect 8 1 5 0;
#X connect 9 0 10 0;
#X connect 10 0 5 0;
#X connect 11 0 4 0;
#X connect 12 0 8 0;
#X connect 13 0 14 0;
#X connect 14 0 15 0;
#X connect 15 0 20 1;
#X connect 16 0 17 0;
#X connect 16 1 13 0;
#X connect 17 0 18 0;
#X connect 18 0 13 0;
#X connect 19 0 16 0;
#X connect 20 0 22 1;
#X connect 21 0 1 0;
#X connect 21 1 20 0;
#X connect 21 2 2 0;
#X connect 22 0 11 0;
